<?xml version="1.0" encoding="utf-8"?>
<!-- Generator: Adobe Illustrator 21.0.0, SVG Export Plug-In . SVG Version: 6.00 Build 0)  -->
<svg version="1.1" id="Layer_1" xmlns="http://www.w3.org/2000/svg" xmlns:xlink="http://www.w3.org/1999/xlink" x="0px" y="0px"
	 viewBox="0 0 644.7147 500" style="enable-background:new 0 0 644.7147 500;" xml:space="preserve">
<style type="text/css">
	.st0{fill:#FF5F00;}
	.st1{fill:#EB001B;}
	.st2{fill:#F79E1B;}
</style>
<g>
	<g>
		<path id="XMLID_1775_" d="M117.2714,498.6717v-33.2031c0-12.5063-7.968-20.9176-20.8064-21.0277
			c-6.751-0.1107-13.7233,1.9919-18.5931,9.407c-3.6522-5.8649-9.4081-9.407-17.4868-9.407c-5.6446,0-11.178,1.6598-15.4944,7.8578
			v-6.5296H33.3802v52.9025h11.6208v-29.3295c0-9.1856,5.0917-14.0554,12.949-14.0554c7.6365,0,11.5106,4.9805,11.5106,13.9447
			v29.4402h11.6208v-29.3295c0-9.1856,5.3126-14.0554,12.949-14.0554c7.8574,0,11.6202,4.9805,11.6202,13.9447v29.4402H117.2714z
			 M289.26,445.7692h-18.8145v-16.0478h-11.6208v16.0478h-10.7358v10.5139h10.7358v24.127c0,12.2844,4.7591,19.5899,18.3717,19.5899
			c4.9805,0,10.7352-1.5502,14.3875-4.0955l-3.3196-9.8503c-3.4314,1.9924-7.1949,2.9886-10.1824,2.9886
			c-5.7553,0-7.6365-3.5426-7.6365-8.8535v-23.9062H289.26V445.7692z M387.4286,444.4409c-6.6403,0-10.9572,3.0993-13.9447,7.7472
			v-6.4189h-11.3999v52.9025h11.5101v-29.6615c0-8.7428,3.7629-13.6126,11.2898-13.6126c2.3234,0,4.7586,0.3321,7.1932,1.3283
			l3.5415-10.8465C393.0726,444.8837,389.7524,444.4409,387.4286,444.4409L387.4286,444.4409z M239.014,449.9743
			c-5.5345-3.6522-13.171-5.5334-21.5817-5.5334c-13.3918,0-22.0239,6.4189-22.0239,16.9328
			c0,8.6332,6.4189,13.9458,18.2605,15.6056l5.4232,0.7743c6.3082,0.8844,9.2968,2.5453,9.2968,5.5334
			c0,4.095-4.2062,6.42-12.0635,6.42c-7.968,0-13.7233-2.5459-17.5975-5.5345l-5.4227,8.9648
			c6.3082,4.6479,14.2773,6.8628,22.9095,6.8628c15.273,0,24.1265-7.1948,24.1265-17.2659c0-9.2968-6.9718-14.1666-18.4819-15.827
			l-5.4227-0.7748c-4.981-0.6636-8.9648-1.6587-8.9648-5.2002c0-3.8741,3.7618-6.1986,10.0711-6.1986
			c6.751,0,13.2805,2.5464,16.4906,4.5377L239.014,449.9743z M547.3531,444.4409c-6.6409,0-10.9567,3.0993-13.9448,7.7472v-6.4189
			H522.009v52.9025h11.5095v-29.6615c0-8.7428,3.7635-13.6126,11.2888-13.6126c2.325,0,4.7601,0.3321,7.1948,1.3283l3.5415-10.8465
			C552.9977,444.8837,549.677,444.4409,547.3531,444.4409L547.3531,444.4409z M399.0487,472.2191
			c0,16.0495,11.1791,27.7809,28.2231,27.7809c7.9685,0,13.28-1.771,19.0353-6.3093l-5.5334-9.2968
			c-4.3163,3.0993-8.8541,4.7591-13.8345,4.7591c-9.1862-0.1101-15.9366-6.7515-15.9366-16.9339
			c0-10.1807,6.7504-16.8215,15.9366-16.9322c4.9804,0,9.5182,1.6598,13.8345,4.7597l5.5334-9.2974
			c-5.7553-4.5372-11.0668-6.3082-19.0353-6.3082C410.2278,444.4409,399.0487,456.1724,399.0487,472.2191L399.0487,472.2191z
			 M506.8462,472.2191v-26.4499h-11.5102v6.4189c-3.6522-4.7591-9.1856-7.7472-16.7119-7.7472
			c-14.8302,0-26.451,11.6213-26.451,27.7781c0,16.1591,11.6208,27.7809,26.451,27.7809c7.5263,0,13.0597-2.9892,16.7119-7.7483
			v6.42h11.5102V472.2191z M464.0148,472.2191c0-9.2963,6.0873-16.9322,16.0489-16.9322c9.5171,0,15.9366,7.3039,15.9366,16.9322
			c0,9.6295-6.4195,16.9339-15.9366,16.9339C470.1021,489.153,464.0148,481.5159,464.0148,472.2191L464.0148,472.2191z
			 M325.119,444.4409c-15.4949,0-26.3409,11.2887-26.3409,27.7781c0,16.8237,11.2887,27.7809,27.1157,27.7809
			c7.9686,0,15.273-1.993,21.6919-7.4162l-5.6447-8.5215c-4.4265,3.5415-10.0711,5.5334-15.3836,5.5334
			c-7.4157,0-14.1666-3.4308-15.8264-12.9496h39.2899c0.1107-1.4379,0.2208-2.8768,0.2208-4.427
			C350.1317,455.7296,339.9492,444.4409,325.119,444.4409L325.119,444.4409z M324.8971,454.7334
			c7.4157,0,12.1748,4.6484,13.3918,12.8383h-27.4472C312.0593,459.9347,316.7072,454.7334,324.8971,454.7334L324.8971,454.7334z
			 M613.6473,472.2191v-47.699h-11.5106v27.668c-3.6522-4.7591-9.1855-7.7472-16.7114-7.7472
			c-14.8307,0-26.4515,11.6213-26.4515,27.7781c0,16.1591,11.6208,27.7809,26.4515,27.7809c7.5258,0,13.0592-2.9892,16.7114-7.7483
			v6.42h11.5106V472.2191z M570.8165,472.2191c0-9.2963,6.0869-16.9322,16.0473-16.9322c9.5176,0,15.9365,7.3039,15.9365,16.9322
			c0,9.6295-6.4189,16.9339-15.9365,16.9339C576.9034,489.153,570.8165,481.5159,570.8165,472.2191L570.8165,472.2191z
			 M182.1273,472.2191v-26.4499h-11.5106v6.4189c-3.6522-4.7591-9.1856-7.7472-16.7119-7.7472
			c-14.8302,0-26.451,11.6213-26.451,27.7781c0,16.1591,11.6208,27.7809,26.451,27.7809c7.5263,0,13.0597-2.9892,16.7119-7.7483
			v6.42h11.5106V472.2191z M139.2964,472.2191c0-9.2963,6.0869-16.9322,16.0473-16.9322c9.5177,0,15.9366,7.3039,15.9366,16.9322
			c0,9.6295-6.4189,16.9339-15.9366,16.9339C145.3833,489.153,139.2964,481.5159,139.2964,472.2191z"/>
	</g>
	<g id="XMLID_328_">
		<rect x="235.1886" y="42.5978" class="st0" width="174.3363" height="313.2874"/>
		<path id="XMLID_330_" class="st1" d="M246.2587,199.2415c0-63.5569,29.7584-120.1615,76.0986-156.6437
			C288.4669,15.9188,245.7052,0,199.2272,0C89.1972,0,0,89.2038,0,199.2415c0,110.0372,89.1972,199.2415,199.2272,199.2415
			c46.4781,0,89.2397-15.9177,123.1302-42.5978C276.0171,319.4025,246.2587,262.7985,246.2587,199.2415z"/>
		<path class="st2" d="M644.7147,199.2415c0,110.0372-89.1971,199.2415-199.2272,199.2415
			c-46.4781,0-89.2397-15.9177-123.1302-42.5978c46.3414-36.4828,76.0981-93.0868,76.0981-156.6437
			S368.6987,79.0801,322.3573,42.5978C356.2478,15.9188,399.0094,0,445.4875,0C555.5175,0,644.7147,89.2038,644.7147,199.2415z"/>
	</g>
</g>
</svg>
