<?xml version="1.0" encoding="utf-8"?>
<!-- Generator: Adobe Illustrator 19.2.0, SVG Export Plug-In . SVG Version: 6.00 Build 0)  -->
<svg version="1.1" id="Layer_1" xmlns="http://www.w3.org/2000/svg" xmlns:xlink="http://www.w3.org/1999/xlink" x="0px" y="0px"
	 viewBox="0 0 1971.2654 499.9865" style="enable-background:new 0 0 1971.2654 499.9865;" xml:space="preserve" width="120">
<style type="text/css">
	.st0{fill:#003087;}
	.st1{fill:#009CDE;}
	.st2{fill:#012169;}
</style>
<g>
	<path class="st0" d="M360.7686,37.6979C337.6162,11.3095,295.7651-0.0038,242.2268-0.0038H86.8414
		c-10.9536,0-20.262,7.9662-21.9765,18.7679L0.1653,429.101c-1.2856,8.0909,4.9796,15.4211,13.1805,15.4211h95.9288
		l24.0928-152.8131l-0.7471,4.7853c1.7153-10.8017,10.9536-18.7679,21.8938-18.7679h45.5856
		c89.5521,0,159.6729-36.3743,180.1561-141.5967c0.6078-3.1117,1.1337-6.1407,1.5904-9.1003c-2.5865-1.3694-2.5865-1.3694,0,0
		C387.9451,88.1378,381.8048,61.6662,360.7686,37.6979"/>
	<path class="st1" d="M1522.7717,132.4977h-107.269c-7.3441,0-13.5823,5.3386-14.7295,12.5858L1357.4,420.1444
		c-0.8568,5.4215,3.347,10.3313,8.8239,10.3313h55.046c5.1307,0,9.5009-3.7343,10.3036-8.7962l12.3086-77.9901
		c1.1345-7.2472,7.3862-12.5858,14.7159-12.5858h33.9398c70.66,0,111.4467-34.189,122.0956-101.9722
		c4.7998-29.6249,0.1942-52.9155-13.6777-69.2217C1585.7003,141.9854,1558.6615,132.4977,1522.7717,132.4977 M1535.1503,232.9623
		c-5.8643,38.5043-35.2684,38.5043-63.7178,38.5043h-16.1815l11.3546-71.8909c0.6779-4.3429,4.4259-7.5378,8.8239-7.5378h7.4277
		c19.3622,0,37.6464,0,47.0789,11.0231C1535.5782,209.6579,1537.28,219.45,1535.1503,232.9623"/>
	<path class="st0" d="M757.6728,132.4977h-107.269c-7.3441,0-13.5823,5.3386-14.7295,12.5858l-43.3731,275.0609
		c-0.8568,5.4215,3.3335,10.3313,8.8239,10.3313h51.2287c7.3298,0,13.5671-5.3386,14.7152-12.5719l11.7142-74.2144
		c1.1346-7.2472,7.3863-12.5858,14.716-12.5858h33.9398c70.6602,0,111.4468-34.189,122.0957-101.9722
		c4.7998-29.6249,0.1942-52.9155-13.6777-69.2217C820.6014,141.9854,793.5626,132.4977,757.6728,132.4977 M770.0514,232.9623
		c-5.8643,38.5043-35.2684,38.5043-63.7179,38.5043H690.152l11.3546-71.8909c0.6779-4.3429,4.4259-7.5378,8.8239-7.5378h7.4276
		c19.3622,0,37.6464,0,47.0789,11.0231C770.4794,209.6579,772.1812,219.45,770.0514,232.9623"/>
	<path class="st0" d="M1078.2957,231.7288h-51.3663c-4.3979,0-8.1459,3.1949-8.8373,7.5513l-2.2547,14.3562l-3.5825-5.2004
		c-11.1335-16.1401-35.9312-21.5479-60.6882-21.5479c-56.7461,0-105.222,43.0128-114.6545,103.3278
		c-4.9095,30.0951,2.0605,58.8486,19.1275,78.9167c15.6699,18.4362,38.0339,26.112,64.6853,26.112
		c45.751,0,71.1168-29.3759,71.1168-29.3759l-2.296,14.273c-0.8577,5.4215,3.3335,10.3313,8.8373,10.3313h46.2491
		c7.3441,0,13.5823-5.3247,14.7295-12.5719l27.7716-175.841C1087.9907,236.6385,1083.7869,231.7288,1078.2957,231.7288
		 M1006.7095,331.7093c-4.9653,29.3484-28.2561,49.0569-57.9777,49.0569c-14.8958,0-26.8312-4.7992-34.4935-13.8721
		c-7.5931-8.9897-10.4556-21.8106-8.049-36.0699c4.6192-29.0994,28.2966-49.4301,57.5624-49.4301
		c14.5911,0,26.4302,4.8405,34.2445,13.9964C1005.8654,304.6153,1008.9634,317.5054,1006.7095,331.7093"/>
	<path class="st1" d="M1843.3964,231.7288H1792.03c-4.3981,0-8.146,3.1949-8.8374,7.5513l-2.2548,14.3562l-3.5961-5.2004
		c-11.1199-16.1401-35.9175-21.5479-60.6747-21.5479c-56.7461,0-105.222,43.0128-114.6545,103.3278
		c-4.9095,30.0951,2.0605,58.8486,19.1276,78.9167c15.6699,18.4362,38.0338,26.112,64.6853,26.112
		c45.751,0,71.1168-29.3759,71.1168-29.3759l-2.2961,14.273c-0.8577,5.4215,3.3335,10.3313,8.8374,10.3313h46.249
		c7.3441,0,13.5824-5.3247,14.7296-12.5719l27.7715-175.841C1853.0913,236.6385,1848.8875,231.7288,1843.3964,231.7288
		 M1771.8102,331.7093c-4.9653,29.3484-28.2561,49.0569-57.9777,49.0569c-14.8959,0-26.8312-4.7992-34.4935-13.8721
		c-7.6066-8.9897-10.4556-21.8106-8.049-36.0699c4.6191-29.0994,28.2966-49.4301,57.5624-49.4301
		c14.5911,0,26.4302,4.8405,34.2445,13.9964C1770.9661,304.6153,1774.064,317.5054,1771.8102,331.7093"/>
	<path class="st0" d="M1351.8734,231.73h-51.6296c-4.9374,0-9.5566,2.448-12.3229,6.5419l-71.2274,104.8905l-30.1782-100.7966
		c-1.8943-6.3068-7.7029-10.6358-14.2864-10.6358h-50.7441c-6.1268,0-10.442,6.0302-8.4642,11.8252l56.8431,166.8787
		l-53.4683,75.4454c-4.1912,5.9194,0.0414,14.1071,7.3019,14.1071h51.574c4.8826,0,9.4603-2.3927,12.2537-6.4035l171.6918-247.8148
		C1363.3243,239.8349,1359.0925,231.73,1351.8734,231.73"/>
	<path class="st1" d="M1903.9376,140.0559l-44.0231,280.0954c-0.8577,5.4215,3.3335,10.3313,8.8239,10.3313h44.2856
		c7.3297,0,13.5814-5.3386,14.7152-12.5858l43.4144-275.0609c0.8577-5.4215-3.3336-10.3313-8.8383-10.3313h-49.5404
		C1908.3627,132.5046,1904.6146,135.6995,1903.9376,140.0559"/>
	<path class="st0" d="M360.7686,37.6979C337.6162,11.3095,295.7651-0.0038,242.2268-0.0038H86.8414
		c-10.9536,0-20.262,7.9662-21.9765,18.7679L0.1653,429.101c-1.2856,8.0909,4.9796,15.4211,13.1805,15.4211h95.9288
		l24.0928-152.8131l-0.7471,4.7853c1.7153-10.8017,10.9536-18.7679,21.8938-18.7679h45.5856
		c89.5521,0,159.6729-36.3743,180.1561-141.5967c0.6078-3.1117,1.1337-6.1407,1.5904-9.1003c-2.5865-1.3694-2.5865-1.3694,0,0
		C387.9451,88.1378,381.8048,61.6662,360.7686,37.6979"/>
	<path class="st0" d="M159.2607,127.5448c1.0231-6.5001,5.1999-11.825,10.8152-14.5219c2.5586-1.217,5.4076-1.8949,8.395-1.8949
		h121.8188c14.4256,0,27.8821,0.9406,40.178,2.9182c3.5269,0.5671,6.9423,1.2173,10.2623,1.9639
		c3.3192,0.7331,6.5413,1.5629,9.6672,2.4757c1.5625,0.4565,3.098,0.9267,4.6057,1.4247
		c6.0441,2.0192,11.6729,4.3704,16.8458,7.1227c6.099-38.9052-0.0422-65.3629-21.0783-89.3312
		C337.6044,11.3137,295.7677,0,242.2294,0H86.8296C75.8903,0,66.5819,7.9666,64.8674,18.7683L0.1678,429.0913
		c-1.2856,8.1046,4.9796,15.4209,13.167,15.4209h95.9423l24.0928-152.8131L159.2607,127.5448z"/>
	<path class="st1" d="M381.8487,127.0291L381.8487,127.0291c-0.471,2.9737-0.9826,5.9888-1.5912,9.1005
		c-20.4824,105.2087-90.6031,141.5967-180.1561,141.5967h-45.5991c-10.9393,0-20.1785,7.9662-21.8794,18.7679l-23.3457,148.0139
		l-6.6249,41.9896c-1.1202,7.0811,4.3566,13.4985,11.5209,13.4985h80.8667c9.5709,0,17.7169-6.9706,19.2102-16.4168l0.7884-4.1215
		l15.2411-96.5923l0.9826-5.3386c1.4933-9.4462,9.6393-16.4167,19.2103-16.4167h12.1017
		c78.336,0,139.6742-31.8239,157.5988-123.8658c7.4817-38.4627,3.6096-70.577-16.1823-93.1347
		C397.9887,137.2776,390.5341,131.6347,381.8487,127.0291"/>
	<path class="st2" d="M360.4023,118.4804c-3.1259-0.9127-6.3488-1.7425-9.668-2.4755c-3.3192-0.7331-6.7489-1.3831-10.2623-1.9502
		c-12.3094-1.9915-25.7524-2.9321-40.1915-2.9321H178.4752c-3.0009,0-5.8499,0.6778-8.3951,1.9086
		c-5.6288,2.697-9.7921,8.008-10.8152,14.5221l-25.8908,164.1542l-0.7471,4.7852c1.7018-10.8015,10.9401-18.7679,21.8803-18.7679
		h45.5991c89.5521,0,159.6729-36.3743,180.1561-141.5967c0.6086-3.1117,1.1202-6.1268,1.5904-9.1003
		c-5.1864-2.7384-10.8017-5.1035-16.8458-7.109C363.5003,119.421,361.9648,118.9369,360.4023,118.4804"/>
</g>
</svg>
