<?xml version="1.0" encoding="utf-8"?>
<!-- Generator: Adobe Illustrator 19.2.0, SVG Export Plug-In . SVG Version: 6.00 Build 0)  -->
<svg version="1.1" id="logo" xmlns="http://www.w3.org/2000/svg" xmlns:xlink="http://www.w3.org/1999/xlink" x="0px" y="0px"
	 viewBox="0 0 1164.4055 500" style="enable-background:new 0 0 1164.4055 500;" xml:space="preserve" width="120">
<style type="text/css">
	.st0{fill:#0023A0;}
	.st1{fill:#FF9E16;}
</style>
<path id="russia_x5F_word" class="st0" d="M1158.212,116.5542h-28.2313c-5.3677,0-5.9869,2.0643-6.1934,6.2448v196.7995
	c0,5.4452,2.3534,6.2453,6.4514,6.5291h27.6948c3.8188,0,6.4719-0.8002,6.4719-6.5291V122.799
	C1164.4055,117.4833,1162.5785,116.5542,1158.212,116.5542z M793.3618,116.5542h-28.2595c-5.3162,0-5.8838,2.0643-6.1417,6.2448
	v196.7995c0,5.4452,2.3481,6.2453,6.4774,6.5291h27.6401c3.8712,0,6.5032-0.8002,6.5032-6.5291V122.799
	C799.5812,117.4833,797.8265,116.5542,793.3618,116.5542z M718.2263,378.2034c-17.8063-4.7999-54.6052-17.5996-64.4111-51.1214
	c53.108-19.896,65.8819-71.2752,65.8819-106.5775c0-64.132-38.0378-108.7761-94.1392-108.7761
	c-51.689,0-94.9907,37.4956-94.9907,111.0729c0,48.1792,22.27,97.7521,81.0557,107.2487
	c24.3348,57.2625,102.1645,66.2428,108.0742,66.2428c8.335,0,10.374-5.3674,10.374-8.6447
	C730.071,381.145,725.6321,379.9321,718.2263,378.2034z M624.9902,306.3347c-3.8707,0-24.6704,0-39.5345-24.6704
	c-10.6578-18.1413-13.0836-42.7858-13.0836-61.1597c0-19.9218,2.7097-43.6114,13.0836-60.2872
	c10.1673-15.7155,25.5218-23.4834,39.8442-23.4834c6.7611,0,24.9796,1.7552,38.3211,22.5543
	c12.4388,19.3336,14.2193,45.7587,14.2193,60.0293c0.3097,17.4448-1.4967,42.399-11.5869,60.5403
	C655.5957,298.5409,639.5187,306.3347,624.9902,306.3347z M1079.2744,116.5542h-20.1801c-4.1289,0-5.6772,1.1611-6.8436,5.961
	l-34.4454,135.9754l-42.1976-135.1493c-1.7858-5.6259-2.0643-6.1676-4.1086-6.787h-11.3231c-3.2519,0-3.8713,1.7287-5.3162,5.961
	l-41.5264,135.9754l-34.239-135.4337c-1.4761-6.2707-2.7149-6.5027-7.7214-6.5027h-27.8906c-2.9728,0-5.7057,0.9291-5.7057,4.4642
	c0,1.1352,0,1.4967,0.9291,4.7227l55.5624,194.8123c1.4655,4.7739,3.0447,5.5741,8.3609,5.5741c4.4077,0,12.4382,0,13.2849-0.2838
	c2.9417-0.2325,3.561-1.1357,5.0577-5.5482l39.7924-126.577l42.4555,126.8349c1.4761,4.4901,2.4052,5.2903,5.3162,5.5741h14.6368
	c4.1287,0,5.0065-1.084,6.5032-5.832l54.7079-194.5544c0.5369-2.9422,0.8258-4.181,0.8258-5.3421
	C1085.2097,116.5542,1082.5775,116.5542,1079.2744,116.5542z"/>
<path id="sign_1_" class="st1" d="M377.893,335.1259c-4.715-1.7553-5.1362,3.8057-3.9538,7.4272
	c2.6235,8.4802,6.1856,14.9648,8.7943,16.2581c2.4905,1.515,5.4466-1.9767,3.5621-10.4568
	C385.4827,344.6776,382.6966,336.9916,377.893,335.1259z M340.6614,350.83c-0.0742-0.0556-0.1256-0.0556-0.1998-0.1109
	c-0.1476,0-0.2585-0.0556-0.3546-0.0927c-0.1627-0.0552-0.2955-0.129-0.4435-0.1661c-0.0885,0-0.2217,0-0.2588-0.0371
	c-0.2365-0.0738-0.4582-0.129-0.7166-0.2217c-2.9782-0.5172-5.9344-0.0738-8.3878,1.515
	c-5.5648,3.7876-6.4146,12.3415-1.8548,19.1591c2.1284,3.0853,4.9734,5.2284,8.0405,6.4108c0.059,0,0.1109,0,0.2437,0.0742
	c0.0885,0.0186,0.2217,0.0923,0.3103,0.0923c0.1479,0.0738,0.2959,0.0738,0.4287,0.1109c0.1256,0,0.1847,0.0553,0.2736,0.0923
	c0.2437,0.0552,0.4435,0.1479,0.6871,0.1661c2.9563,0.5914,5.9269,0.1665,8.4026-1.4965
	c5.6019-3.7872,6.4517-12.3044,1.8847-19.1035C346.6103,354.0999,343.7505,351.9197,340.6614,350.83z M472.7826,485.0538
	c-13.583-27.6393-37.6749-47.9252-63.777-63.4818c-9.0529-5.3945-19.2736-9.2006-28.1787-12.1198
	c-20.4857-6.6326-40.3134-8.1661-63.43-12.1198c-18.7856-3.2147-33.6252-10.9373-49.5511-21.7457
	c-8.2917-5.6718-15.0757-13.4501-20.7441-21.6901c-1.0568-1.663-6.3556-8.1109-5.8236-10.3278c0,0-3.6949,14.7805,3.6214,35.5284
	c-67.2323-3.0115-126.1686-40.2952-153.1612-85.4859C42.0393,210.45,59.554,109.6664,125.807,65.159
	c66.236-44.5255,167.2395-13.1176,221.3057,67.2507c33.9359,50.4377,42.6193,109.116,28.0828,156.8414
	c-0.1108,0.3697-0.2439,0.7208-0.3547,1.0901c-28.7255-20.8955-54.9682-10.2355-54.9682-10.2355
	c28.7922-2.9744,51.5538,19.9352,51.5538,19.9352c3.3405,2.9744,6.5552,6.2633,9.4743,9.9214
	c0.6503,0.8865,1.3302,1.792,1.9805,2.7527c7.538,10.2355,12.2455,21.6163,14.2409,33.1636
	c57.1631-72.5163,66.6077-172.9522,16.0219-250.9556C348.7167-4.4934,211.3315-29.8787,106.3891,38.1482
	C1.3933,106.23-31.4577,241.932,33.0048,341.3335c52.9504,81.7907,177.1628,106.7325,248.365,84.1926
	c26.9226-8.462,119.1002-16.5173,183.2615,59.2689c0,0,5.5428,6.3371,8.5581,13.561c0,0,0.8865,2.5313,3.2661,1.3118
	C477.084,499.3353,478.8575,497.2845,472.7826,485.0538z"/>
</svg>
