<?xml version="1.0" encoding="utf-8"?>
<!-- Generator: Adobe Illustrator 19.2.0, SVG Export Plug-In . SVG Version: 6.00 Build 0)  -->
<svg version="1.1" id="Visa_Logo" xmlns="http://www.w3.org/2000/svg" xmlns:xlink="http://www.w3.org/1999/xlink" x="0px" y="0px"
	 viewBox="0 0 1548.203 499.1138" style="enable-background:new 0 0 1548.203 499.1138;" xml:space="preserve" width="120">
<style type="text/css">
	.Arched_x0020_Green{fill:url(#SVGID_1_);stroke:#FFFFFF;stroke-width:0.25;stroke-miterlimit:1;}
	.st0{fill:url(#SVGID_2_);}
</style>
<linearGradient id="SVGID_1_" gradientUnits="userSpaceOnUse" x1="384.9101" y1="597.6312" x2="385.6172" y2="596.924">
	<stop  offset="0" style="stop-color:#24AB4B"/>
	<stop  offset="0.9831" style="stop-color:#1E371F"/>
</linearGradient>
<linearGradient id="SVGID_2_" gradientUnits="userSpaceOnUse" x1="0" y1="250" x2="1548.203" y2="250">
	<stop  offset="0" style="stop-color:#231F5C"/>
	<stop  offset="1" style="stop-color:#034EA2"/>
</linearGradient>
<path class="st0" d="M587.8068,8.8441L385.1155,492.4375h-132.233l-99.748-385.9412
	c-6.0588-23.7606-11.3083-32.4822-29.7205-42.4738C93.3437,47.6854,43.6844,32.3768,0,22.8682L2.9466,8.8441h212.8829
	c27.1165,0,51.5279,18.0416,57.6878,49.2988l52.6826,279.8477L456.4031,8.8441H587.8068z M1105.9603,334.5366
	c0.5597-127.6171-176.4816-134.6658-175.2631-191.6883c0.392-17.3377,16.9041-35.775,53.0639-40.4999
	c17.8983-2.3337,67.3289-4.1471,123.3331,21.629l21.9858-102.534C1098.954,10.507,1060.2388,0,1012.0323,0
	C888.3912,0,801.3477,65.7406,800.6511,159.8505c-0.8257,69.6498,62.1144,108.4624,109.5368,131.6209
	c48.7175,23.6968,65.0618,38.9,64.8797,60.0918c-0.3641,32.4642-38.8756,46.7714-74.8821,47.3349
	c-62.8915,0.9762-99.4011-17.0023-128.4851-30.5569L749.05,474.3156c29.2022,13.4106,83.1621,25.111,139.1175,25.6844
	C1019.5992,500,1105.5546,435.1031,1105.9603,334.5366 M1432.4993,492.4375h115.7037L1447.2057,8.8441h-106.7794
	c-24.0157,0-44.2656,13.9575-53.2532,35.4675l-187.7152,448.1259h131.3334l26.1016-72.2466h160.4878L1432.4993,492.4375z
	 M1292.8993,321.0901l65.8589-181.577l37.9102,181.577H1292.8993z M766.5662,8.8441L663.119,492.4375H538.0013L641.4901,8.8441
	H766.5662z"/>
</svg>
