<?xml version="1.0" encoding="utf-8"?>
<!-- Generator: Adobe Illustrator 19.2.0, SVG Export Plug-In . SVG Version: 6.00 Build 0)  -->
<svg version="1.1" id="Layer_1" xmlns="http://www.w3.org/2000/svg" xmlns:xlink="http://www.w3.org/1999/xlink" x="0px" y="0px"
	 viewBox="0 0 1999.6161 500" style="enable-background:new 0 0 1999.6161 500;" xml:space="preserve" width="120">
<style type="text/css">
	.st0{fill-rule:evenodd;clip-rule:evenodd;fill:#0073B8;}
	.st1{fill:#0073B8;}
</style>
<g>
	<path class="st0" d="M1747.7367,0c39.2544,0,76.4299,9.1386,109.5364,25.3667c5.2026,2.4684,10.3901,5.185,15.5878,8.1781
		l-23.0117,20.6004l-34.575-35.7519l-58.3595,52.0516l-34.6632-37.8288l-108.7091,97.9888l69.6907,76.8073l-27.3865,24.0863
		l68.6462,76.9228l-27.2286,24.0318l98.0922,109.1867l58.2269-53.6053l50.3394,57.4434
		c-10.0109,7.7836-20.9182,15.1096-32.9338,21.8787C1834.5815,488.117,1792.5092,500,1747.7367,500
		c-137.6924,0-249.9927-112.3155-249.9927-249.9927C1497.744,112.3004,1610.0443,0,1747.7367,0L1747.7367,0z"/>
	<polygon class="st0" points="1702.1757,234.2005 1761.6244,180.6663 1815.1561,240.1296 1755.7124,293.6467 1702.1757,234.2005
		"/>
	<polygon class="st0" points="1744.4504,336.9264 1803.8992,283.4043 1857.436,342.853 1797.9872,396.3897 1744.4504,336.9264 	"/>
	<polygon class="st0" points="1659.6401,132.6818 1719.0884,79.1622 1772.6055,138.6084 1713.1572,192.13 1659.6401,132.6818 	"/>
	<polygon class="st0" points="1768.7285,103.8736 1813.3138,63.7347 1853.4551,108.3201 1808.8699,148.4735 1768.7285,103.8736 	"/>
	<polygon class="st0" points="1847.9473,287.7494 1892.5471,247.5959 1932.6891,292.1933 1888.1036,332.3346 1847.9473,287.7494
		"/>
	<polygon class="st0" points="1887.1725,377.8068 1931.743,337.6508 1971.899,382.2356 1927.3137,422.3774 1887.1725,377.8068 	"/>
	<polygon class="st0" points="1905.1299,171.3995 1934.8517,144.6385 1961.6128,174.3628 1931.9005,201.1214 1905.1299,171.3995
		"/>
	<polygon class="st0" points="1867.1512,83.0835 1896.8776,56.325 1923.6387,86.0468 1893.9117,112.8079 1867.1512,83.0835 	"/>
	<polygon class="st0" points="1943.1332,259.7125 1972.855,232.9514 1999.6161,262.6732 1969.8943,289.4343 1943.1332,259.7125 	"/>
	<polygon class="st0" points="1809.8258,193.539 1854.4111,153.3831 1894.5525,197.9684 1849.9818,238.1097 1809.8258,193.539 	"/>
</g>
<g>
	<path class="st1" d="M116.6656,206.9052h-1.9977L77.0116,349.2478H46.2137L0,147.0055h31.9461L63.8927,297.903h1.9977
		l37.0817-150.8975h25.3869l39.6535,150.8975h1.9902l29.0912-150.8975h33.3778l-46.2137,202.2423h-30.8054L116.6656,206.9052z"/>
	<path class="st1" d="M358.8692,317.8657v21.677c-12.8334,7.4239-29.9483,13.1341-50.4897,13.1341
		c-47.9128,0-67.5971-29.6678-67.5971-74.7455c0-43.3513,21.965-74.7309,64.7498-74.7309c35.651,0,57.616,23.1126,57.616,69.6024
		v10.5476h-92.9839c0,34.2248,13.9745,49.3491,43.3564,49.3491C328.9208,332.6994,343.1809,327.2803,358.8692,317.8657z
		 M270.7383,264.2452h65.3087c-1.4166-29.9559-15.9667-41.9277-31.372-41.9277
		C287.2696,222.3175,273.8691,235.725,270.7383,264.2452z"/>
	<path class="st1" d="M418.7588,213.7601c8.5575-4.562,23.1006-10.5598,38.5058-10.5598c35.368,0,54.4801,24.5368,54.4801,70.1835
		c0,53.3299-25.6648,79.2929-67.0229,79.2929c-15.1243,0-38.5134-4.8526-55.6283-13.9917V139.5962l29.6653-7.1313V213.7601z
		 M418.4758,328.1374c9.124,3.9955,19.1122,4.562,26.246,4.562c21.1079,0,37.0797-13.1194,37.0797-59.3156
		c0-36.2347-13.1245-47.9279-32.2341-47.9279c-11.4128,0-19.6792,3.1384-31.0915,9.412V328.1374z"/>
	<path class="st1" d="M641.5274,306.4604h1.4312l61.0373-159.455h35.3751v202.2423h-30.8055v-146.614h-2.5718l-58.1895,146.614
		h-18.248l-58.1976-143.1876h-2.5643v143.1876h-25.6694V147.0055h34.5104L641.5274,306.4604z"/>
	<path class="st1" d="M770.7434,277.9312c0-49.9186,27.3841-74.7309,65.0328-74.7309c37.6563,0,65.0403,24.8123,65.0403,74.7309
		c0,48.7826-25.9604,74.7455-65.0403,74.7455S770.7434,326.7137,770.7434,277.9312z M870.8607,277.9312
		c0-38.5012-15.6913-54.7561-35.0845-54.7561c-18.8266,0-35.0845,16.2548-35.0845,54.7561c0,39.092,14.8387,54.7682,35.0845,54.7682
		C856.027,332.6994,870.8607,317.0232,870.8607,277.9312z"/>
	<path class="st1" d="M927.91,224.3082c12.836-7.7003,39.9371-21.1079,72.7256-21.1079c34.2445,0,47.0684,13.4075,47.0684,42.7823
		v103.2652h-29.6628v-96.6984c0-22.5315-11.1141-26.527-25.6572-26.527c-11.4174,0-25.968,5.1432-34.8065,10.2697v112.9557H927.91
		V224.3082z"/>
	<path class="st1" d="M1192.3126,317.8657v21.677c-12.8284,7.4239-29.9387,13.1341-50.4821,13.1341
		c-47.9109,0-67.597-29.6678-67.597-74.7455c0-43.3513,21.9674-74.7309,64.7493-74.7309c35.6636,0,57.6311,23.1126,57.6311,69.6024
		v10.5476h-92.989c0,34.2248,13.972,49.3491,43.3488,49.3491C1162.3739,332.6994,1176.6365,327.2803,1192.3126,317.8657z
		 M1104.1869,264.2452h65.3158c-1.4186-29.9559-15.9768-41.9277-31.377-41.9277
		C1120.7201,222.3175,1107.3297,235.725,1104.1869,264.2452z"/>
	<path class="st1" d="M1307.5642,208.0504h30.52l-51.6299,142.621c-14.2677,39.368-31.6731,59.8972-64.4591,59.8972v-23.3765
		c19.3956,0,31.3623-15.4153,38.2202-36.5207l-54.7687-142.621h31.3821l36.506,104.9628h1.6996L1307.5642,208.0504z"/>
</g>
</svg>
