<?xml version="1.0" encoding="utf-8"?>
<!-- Generator: Adobe Illustrator 19.2.0, SVG Export Plug-In . SVG Version: 6.00 Build 0)  -->
<svg version="1.1" id="Layer_1" xmlns="http://www.w3.org/2000/svg" xmlns:xlink="http://www.w3.org/1999/xlink" x="0px" y="0px"
	 viewBox="0 0 1964.7214 500" style="enable-background:new 0 0 1964.7214 500;" xml:space="preserve" width="120">
<style type="text/css">
	.st0{fill:#EE2E24;}
	.st1{fill:#FFCF01;}
</style>
<g>
	<g>
		<path d="M1047.8199,186.4688v5.4816c0,42.1528-3.1018,64.5452-6.9169,80.5087c-3.3326,14.7623-8.0977,27.3828-15.7173,41.1951
			h71.6846V186.4688H1047.8199z M1002.7989,313.6542c3.8101-6.9004,12.626-23.5727,17.6218-44.7793
			c4.5342-20.0016,5.4843-43.1001,5.4843-75.492v-26.6773h93.8297v146.9485h20.0099v56.6976h-21.4264v-36.924h-112.1874v36.924
			H984.694v-56.6976H1002.7989z"/>
		<path d="M1235.6036,264.5928c-0.7034-7.1449-4.0513-15.7223-8.8114-20.7182c-5.7201-5.9591-12.3898-7.1449-18.5714-7.1449
			c-6.9114,0-12.8733,1.4303-18.3466,6.6674c-5.0013,4.7651-9.2834,12.8595-10.4747,21.1956H1235.6036z M1255.6135,318.4193
			c-8.8219,10.2489-21.4374,17.6273-43.3468,17.6273c-13.3348,0-27.3938-1.9105-39.7834-14.7673
			c-9.761-10.2385-15.9481-25.7245-15.9481-42.6331c0-15.2393,5.2371-32.6309,15.9481-44.2991
			c8.8213-9.5247,20.4978-14.7645,35.9733-14.7645c12.149,0,23.5782,3.0908,32.8672,11.9045
			c13.8118,13.1013,17.3911,35.0107,17.1499,50.25h-80.0291c0.2418,10.4852,4.2876,21.9149,10.9521,28.8263
			c6.9059,6.9009,15.014,8.3334,21.9149,8.3334c6.675,0,19.0543-0.955,30.9615-12.143L1255.6135,318.4193z"/>
	</g>
	<polygon points="1308.0229,333.4278 1288.2494,333.4278 1288.2494,222.196 1308.0229,222.196 1308.0229,264.834 1361.1307,264.834
		1361.1307,222.196 1380.8939,222.196 1380.8939,333.4278 1361.1307,333.4278 1361.1307,281.9839 1308.0229,281.9839 	"/>
	<g>
		<path d="M1456.1469,316.278c4.765,0,13.5815-0.4775,19.0548-4.7596c3.1013-2.3826,6.9115-6.9169,6.9115-15.014
			c0-7.6196-3.5737-12.138-6.4338-14.5206c-5.4844-4.287-14.7673-4.7645-20.2406-4.7645h-17.6329v39.0587H1456.1469z
			 M1418.0426,222.196h19.7632v37.8735h20.0043c15.4866,0,27.3939,3.0958,35.4965,10.716
			c8.8108,8.3384,10.2329,19.0543,10.2329,26.1964c0,13.8178-5.4733,21.6786-9.9916,25.9662
			c-9.5248,9.0527-24.0613,10.4797-38.8286,10.4797h-36.6766V222.196z"/>
	</g>
	<polygon points="1550.1432,333.4278 1530.3695,333.4278 1530.3695,222.196 1601.5927,222.196 1601.5927,239.8233
		1550.1432,239.8233 	"/>
	<polygon points="1699.3132,233.395 1699.3132,222.196 1719.0868,222.196 1719.0868,333.4278 1699.3132,333.4278 1699.3132,257.687
		1646.4473,321.9987 1646.4473,333.4278 1626.6736,333.4278 1626.6736,222.196 1646.4473,222.196 1646.4473,297.7012 	"/>
	<g>
		<path class="st0" d="M115.8231,115.1573H77.8744c-37.2723,0-68.8938,28.3779-68.8938,83.471
			c0,33.0496,15.3195,57.4218,42.6006,69.4417L0.6686,360.215c-1.6688,3.0106,0,5.3393,2.6507,5.3393h23.632
			c1.9963,0,3.332-0.6704,3.992-2.3287l46.2662-90.4873h16.6454v90.4873c0,0.9979,1.0033,2.3287,2.3232,2.3287h20.6484
			c1.9908,0,2.6617-0.9979,2.6617-2.6617V118.4976C119.4881,116.1607,118.1518,115.1573,115.8231,115.1573 M93.8549,251.3762
			H79.8761c-21.9682,0-43.2716-16.0228-43.2716-56.0909c0-41.7424,19.9725-58.7631,40.2665-58.7631h16.9839V251.3762z"/>
		<path d="M240.9265,198.164h-20.6379c-1.6633,0-2.6562,1.3336-2.6562,2.3293v63.7721h-38.2867v-63.7721
			c0-1.6611-0.6544-2.3293-2.3232-2.3293h-20.6429c-1.6528,0-2.6512,1.0012-2.6512,2.3293v162.2653
			c0,1.6743,0.6709,2.6672,2.3183,2.6672h20.9758c1.3363,0,2.3232-0.993,2.3232-2.6672v-77.4531h38.2867v77.4531
			c0,1.6743,0.9929,2.6672,2.6562,2.6672h20.6379c1.6633,0,2.3287-1.3254,2.3287-2.6672V200.4932
			C243.2552,199.1651,242.2574,198.164,240.9265,198.164"/>
		<path d="M712.0844,354.7471l-2.6617-11.349c-0.3275-1.0033-0.66-1.3363-1.6528-1.3363c-1.6688,0-10.6566,3.665-23.637,3.665
			c-25.2959,0-37.6158-24.3618-37.6158-63.0935c0-34.0606,10.3242-67.7784,27.6295-67.7784c4.6629,0,10.3242,1.3336,19.3016,9.6884
			c1.0034,0.9984,1.6633,1.3336,2.6611,1.3336c1.0039,0,2.0018-0.6759,3.0051-2.3424l8.9884-14.681
			c0.6599-1.0143,0.9924-2.0232,0.9924-3.0211c0-1.3336-1.3253-2.3292-3.332-3.3243c-13.6458-7.0191-22.9562-8.3521-30.9462-8.3521
			c-31.2946,0-55.5914,37.3899-55.5914,95.8129c0,50.4137,23.3046,79.4653,56.5844,79.4653c13.9892,0,28.9603-6.6756,34.9541-11.022
			C712.0844,357.4143,712.4113,356.0835,712.0844,354.7471"/>
		<path d="M567.4326,273.6131l39.939-73.1149c0.671-1.0033,0.333-2.3315-1.0034-2.3315h-19.634
			c-5.6613,0-7.6576,1.999-9.6428,6.3377l-29.9692,62.4336c-1.6528,3.6755-3.3216,6.0042-4.9849,7.013v-73.4529
			c0-1.3358-0.6655-2.3315-1.9963-2.3315h-21.6357c-0.993,0-1.9963,0.9957-1.9963,2.3315V363.097
			c0,0.9979,0.6709,2.3342,1.9963,2.3342h21.6357c1.3309,0,1.9963-1.0089,1.9963-2.3342v-83.8067
			c0.9979,0.6709,1.6632,1.6688,2.3287,3.0156l37.9377,78.1136c1.9962,4.003,4.9958,5.0118,9.3312,5.0118h21.2979
			c1.3254,0,1.6633-1.3364,0.9929-2.3342L567.4326,273.6131z"/>
		<path d="M376.7294,344.396h-3.9975c-4.9959,0-6.3267-1.9957-6.3267-6.0042V200.496c0-1.6666-0.6654-2.3342-2.0012-2.3342h-66.5602
			c-1.6688,0-2.6617,1.0006-2.6617,2.3342v12.0171c0,40.4005-2.3342,92.4802-23.632,131.8829h-7.3301
			c-1.9957,0-2.6611,1.0089-2.6611,2.6727v48.7449c0,1.6737,1.3358,2.3287,2.3342,2.3287h15.9745
			c3.6541,0,4.9904-2.6617,4.9904-5.0063v-27.7103h71.234v30.3879c0,1.3253,0.9869,2.3287,2.3177,2.3287h16.9839
			c1.9907,0,3.9815-1.6633,3.9815-5.0063v-46.0673C379.3752,345.4048,378.3823,344.396,376.7294,344.396 M340.772,344.396h-48.257
			c16.9839-29.0406,23.632-61.7627,25.9613-101.8253c0.6703-8.6823,1.0033-17.7026,1.0033-23.3716h21.2924V344.396z"/>
		<path d="M444.6205,194.1582c-35.936,0-51.9214,45.4019-51.9214,94.8122c0,50.4192,22.6282,80.4582,55.9189,80.4582
			c16.302,0,30.6187-6.3317,37.9323-11.0165c1.3364-0.6654,1.6693-1.6688,1.3364-2.9996l-2.6617-11.3489
			c-0.3379-1.3363-1.0034-2.0018-2.6666-2.0018c-1.3198,0-10.9792,3.6595-24.6299,3.6595c-25.6283,0-37.6053-22.3545-37.6053-51.739
			v-7.9037c0,0,12.9749,1.5611,20.6324,1.5611h48.5944v-14.0266C489.5498,221.8713,471.2356,194.1582,444.6205,194.1582
			 M440.9554,266.6105c-7.6575,0-19.634,1.3308-19.634,1.3308s0-5.0069,0.6704-10.3566
			c2.9837-28.3757,9.9758-42.7271,21.6303-42.7271c10.6571,0,17.3058,14.6843,18.9691,40.3956
			c0.3325,5.3365,0.3325,11.3572,0.3325,11.3572S440.9554,266.6105,440.9554,266.6105z"/>
	</g>
	<path class="st1" d="M878.6724,42.2089h912.2601l120.3494,207.7908l-120.3708,207.92H878.6724V42.2089z M831.6874,0v500h988.6994
		l144.3346-250.0003L1820.3868,0H831.6874z"/>
</g>
</svg>
